name rise35.5848peak51.9257fall54.8793.mot
datacolumns 19
datarows 15
range 17.92825600000000 17.95159200000000
endheader
time	ground_force1_vx	ground_force1_vy	ground_force1_vz	ground_force1_px	ground_force1_py	ground_force1_pz	ground_force2_vx	ground_force2_vy	ground_force2_vz	ground_force2_px	ground_force2_py	ground_force2_pz	ground_torque1_x	ground_torque1_y	ground_torque1_z	ground_torque2_x	ground_torque2_y	ground_torque2_z	
17.92825600000000	19.08219500000000	711.73037899999997	42.71497400000000	0.21145900000000	0.00000000000000	0.13083700000000	0.00000000000000	0.00000000000000	0.00000000000000	0.00000000000000	0.00000000000000	0.00000000000000	0.00000000000000	13.14108200000000	0.00000000000000	0.00000000000000	0.00000000000000	0.00000000000000	
17.92993200000000	18.71892100000000	711.92627300000004	42.69344000000000	0.21064200000000	0.00000000000000	0.13084900000000	0.00000000000000	0.00000000000000	0.00000000000000	0.00000000000000	0.00000000000000	0.00000000000000	0.00000000000000	13.18480500000000	0.00000000000000	0.00000000000000	0.00000000000000	0.00000000000000	
17.93160700000000	18.34856300000000	712.16439900000000	42.67874200000000	0.20981300000000	0.00000000000000	0.13086200000000	0.00000000000000	0.00000000000000	0.00000000000000	0.00000000000000	0.00000000000000	0.00000000000000	0.00000000000000	13.23289900000000	0.00000000000000	0.00000000000000	0.00000000000000	0.00000000000000	
17.93325700000000	17.97085700000000	712.44354199999998	42.67061200000000	0.20897300000000	0.00000000000000	0.13087500000000	0.00000000000000	0.00000000000000	0.00000000000000	0.00000000000000	0.00000000000000	0.00000000000000	0.00000000000000	13.28525000000000	0.00000000000000	0.00000000000000	0.00000000000000	0.00000000000000	
17.93493100000000	17.58556300000000	712.76246800000001	42.66877200000000	0.20812000000000	0.00000000000000	0.13089000000000	0.00000000000000	0.00000000000000	0.00000000000000	0.00000000000000	0.00000000000000	0.00000000000000	0.00000000000000	13.34174100000000	0.00000000000000	0.00000000000000	0.00000000000000	0.00000000000000	
17.93660200000000	17.19246000000000	713.11993500000005	42.67294400000000	0.20725500000000	0.00000000000000	0.13090600000000	0.00000000000000	0.00000000000000	0.00000000000000	0.00000000000000	0.00000000000000	0.00000000000000	0.00000000000000	13.40225200000000	0.00000000000000	0.00000000000000	0.00000000000000	0.00000000000000	
17.93826000000000	16.79135100000000	713.51469199999997	42.68284200000000	0.20637700000000	0.00000000000000	0.13092200000000	0.00000000000000	0.00000000000000	0.00000000000000	0.00000000000000	0.00000000000000	0.00000000000000	0.00000000000000	13.46665800000000	0.00000000000000	0.00000000000000	0.00000000000000	0.00000000000000	
17.93992500000000	16.38206200000000	713.94548599999996	42.69818100000000	0.20548700000000	0.00000000000000	0.13094000000000	0.00000000000000	0.00000000000000	0.00000000000000	0.00000000000000	0.00000000000000	0.00000000000000	0.00000000000000	13.53483300000000	0.00000000000000	0.00000000000000	0.00000000000000	0.00000000000000	
17.94159000000000	15.96444200000000	714.41106600000001	42.71867400000000	0.20458500000000	0.00000000000000	0.13095800000000	0.00000000000000	0.00000000000000	0.00000000000000	0.00000000000000	0.00000000000000	0.00000000000000	0.00000000000000	13.60664900000000	0.00000000000000	0.00000000000000	0.00000000000000	0.00000000000000	
17.94325600000000	15.53836000000000	714.91018699999995	42.74403500000000	0.20367100000000	0.00000000000000	0.13097800000000	0.00000000000000	0.00000000000000	0.00000000000000	0.00000000000000	0.00000000000000	0.00000000000000	0.00000000000000	13.68197600000000	0.00000000000000	0.00000000000000	0.00000000000000	0.00000000000000	
17.94493000000000	15.10371200000000	715.44161299999996	42.77397900000000	0.20274500000000	0.00000000000000	0.13099700000000	0.00000000000000	0.00000000000000	0.00000000000000	0.00000000000000	0.00000000000000	0.00000000000000	0.00000000000000	13.76068200000000	0.00000000000000	0.00000000000000	0.00000000000000	0.00000000000000	
17.94658900000000	14.66041100000000	716.00412200000005	42.80822300000000	0.20180700000000	0.00000000000000	0.13101800000000	0.00000000000000	0.00000000000000	0.00000000000000	0.00000000000000	0.00000000000000	0.00000000000000	0.00000000000000	13.84263400000000	0.00000000000000	0.00000000000000	0.00000000000000	0.00000000000000	
17.94826900000000	14.20839700000000	716.59650899999997	42.84648900000000	0.20085800000000	0.00000000000000	0.13103900000000	0.00000000000000	0.00000000000000	0.00000000000000	0.00000000000000	0.00000000000000	0.00000000000000	0.00000000000000	13.92769900000000	0.00000000000000	0.00000000000000	0.00000000000000	0.00000000000000	
17.94992800000000	13.74762800000000	717.21758699999998	42.88850300000000	0.19989700000000	0.00000000000000	0.13106100000000	0.00000000000000	0.00000000000000	0.00000000000000	0.00000000000000	0.00000000000000	0.00000000000000	0.00000000000000	14.01574500000000	0.00000000000000	0.00000000000000	0.00000000000000	0.00000000000000	
17.95159200000000	13.27808500000000	717.86619199999996	42.93399800000000	0.19892600000000	0.00000000000000	0.13108400000000	0.00000000000000	0.00000000000000	0.00000000000000	0.00000000000000	0.00000000000000	0.00000000000000	0.00000000000000	14.10663900000000	0.00000000000000	0.00000000000000	0.00000000000000	0.00000000000000	
